<svg xmlns="http://www.w3.org/2000/svg" viewBox="0 0 3000 3000" width="3000" height="3000"><g transform="translate(1818.0 1134.0) rotate(0.0 467.0 486.5) scale(1.238863163982242 1.23810250928895)"><svg width="753.917" height="785.88" viewBox="0 0 753.917 785.88"><path d="M552.218.074c95.21 4.161 184.913 180.788 194.775 311.46 4.921 65.204 33.34 232.229-76.43 361.197C542.637 823.029 219.594 799.705 128.151 739.3 36.718 678.901-26.812 536.346 12.272 436.042c39.353-100.995 152.36-73.554 315.585-209.568C478.656 100.815 478.153-3.164 552.218.074z" fill="#ffa412"/><g fill="#e98f07"><path d="M730.366 286.085c19.384 102.844 16.884 200.096-37.154 292.917 32.967-111.716-38.23-201.919-36.076-195.457 2.886 8.659 73.325 133.21-8.411 266.031-81.844 132.996-280.553 120.537-290.267 136.264 116.054-1.18 242.751-31.628 312.104-113.109 35.534-41.748 56.583-87.484 68.641-132.463 31.336-145.222-11.883-270.346-8.837-254.183zm-126.536 3.168c9.556-21.158 49.05-136.146 6.919-219.111-18.513-36.457-36.128-56.903-50.287-69.199a81.37 81.37 0 0 0-8.773-.87c-74.065-3.237-73.562 100.741-224.361 226.4C164.103 362.487 51.096 335.047 11.743 436.042c-39.084 100.305 24.446 242.86 115.879 303.257a125.05 125.05 0 0 0 3.87 2.445c-18.689-51.432 33.574-77.49 65.781-97.964 19.697-12.521-69.132-2.095-65.455-37.399 2.55-24.484 53.321-100.9 145.695-136.589 103.559-40.011 214.294-14.738 214.496-18.212.157-2.707-50.031-13.144-68.801-17.2s56.218-24.231 55.648-26.306c-.606-2.204-46.915 7.241-67.789 10.118-20.874 2.876 210.533-59.079 222.994-149.4 0 0-42.077 46.689-30.231 20.461z"/></g></svg></g><g transform="translate(1662.0 892.0) rotate(0.0 454.5 581.0) scale(1.218782933284707 1.2202139679846098)"><svg width="745.826" height="952.292" viewBox="0 0 745.826 952.292"><linearGradient id="a" gradientTransform="matrix(-.998 .0635 .0635 .998 -430.5425 43.4978)" gradientUnits="userSpaceOnUse" x1="-971.113" x2="-935.478" y1="143.242" y2="143.242"><stop offset=".382" stop-color="#f79478"/><stop offset=".994" stop-color="#fcb798"/></linearGradient><linearGradient id="b" gradientTransform="matrix(-.8593 -.7417 -.6003 .8169 -1739.8269 -146.6442)" gradientUnits="userSpaceOnUse" x1="-1722.362" x2="-1697.103" y1="-1205.862" y2="-1205.862"><stop offset=".013" stop-color="#fcb798"/><stop offset=".41" stop-color="#f79478"/></linearGradient><path d="M136.945 709.064s6.905 15.087-49.846 62.061c-19.359 16.024-13.969 39.501-11.144 43.216 10.789 14.193 46.501 3.157 56.718 0 34.506-10.663 104.691-46.406 90.461-86.153-6.164-17.217-26.456-40.1-31.401-40.1-4.947.001-54.788 20.976-54.788 20.976z"/><path d="m180.247 757.783-44.654 42.819c14.171 17.841 35.377 37.518 49.548 55.359l42.845-36.893zm-30.658-39.584s5.036 1.999 7.014 5.952c2.046 4.087-.68 7.238.637 8.927 3.815 4.89 44.636-17.855 41.661-25.082-2.976-7.227-10.84-19.98-10.84-19.98z" fill="#fff"/><path d="M175.701 755.958s-42.651 7.033-53.907 23.032c-5.583 7.935-10.877 19.035-10.877 19.035S41.893 819.83 13.409 865.62c-4.103 6.595-16.202 23.107-12.82 43.898 3.819 23.478 24.147 35.499 25.251 36.129 15.55 8.863 31.525 6.558 36.128 5.827 43.711-6.941 88.561-73.135 95.954-78.861s21.52-8.858 40.79-21.755c7.433-4.975 20.669-18.576 20.669-20.839 0-1.011-4.011-4.664-5.439-3.108-1.519 1.655-18.127 19.773-20.618 19.16 0 0 5.736-4.769 6.177-10.704s-27.829-39.432-34.814-37.253c-6.985 2.178-12.754 5.898-19.643 8.871-6.805 2.936 2.215-20.668 28.417-39.26z" fill="#2d3237"/><path d="M84.123 824.901c11.229-6.451 37.866-24.558 31.883-20.83-9.189 5.726-61.91 27.67-83.31 51.879-18.415 20.832-21.666 44.184-21.491 44.204.003 0 .007-.002.012-.009 3.011-9.475 14.986-30.21 21.594-37.98 3.888-4.572 11.351-14.308 51.312-37.264zm7.266 31.481c.215-.96 1.144-1.947 2.358-2.78 4.313-2.958 31.446 32.958 33.036 31.356 4.958-4.995-25.375-33.22-26.534-35.248-.963-1.684 1.756-2.429 4.444-2.684 10.053-.919 29.47 22.635 29.47 22.635-.731-4.266-5.211-8.932-9.575-13.701-10.024-10.281-14.566-11.436-13.648-12.963 5.224-8.678 33.477 21.891 36.347 22.015s-25.806-26.983-26.674-29.347c-.236-.641-.566-1.686 1.93-3.49 6.954-5.025 31.575 27.25 33.354 24.634 1.78-2.615-17.307-29.098-18.34-30.308-1.034-1.211-2.115-3.004-.037-5.089 7.007-7.032 26.392 25.605 29.594 23.232 3.201-2.373-17.524-20.36-18.985-25.58-2.673-9.55 27.149 19.962 22.597 30.87-.612 1.465-1.605 1.848-3.167 1.929-1.994.103-20.516-26.295-23.911-26.898s18.756 23.144 17.797 30.779c-.268 2.132-.809 3.881-3.819 5.585s-26.077-23.341-32.184-24.842 29.622 17.907 25.844 31.636c-.653 2.373-2.074 3.802-4.5 2.92-2.426-.881-37.533-38.193-18.019-15.082 6.855 8.12 14.671 22.638 7.384 23.09-3.451.218-27.811-28.466-29.08-27.448-.174.14.221.89.349 1.144 1.621 3.215 25.592 23.428 25.02 31.13.193 1.72-.177 5.651-2.967 6.047-7.228 1.028-29.631-33.721-34.283-31.607 19.612 31.94 26.465 33.284 25.406 34.024-2.398 1.674-31.286-26.679-29.207-35.959z" fill="#fff"/><path d="M365.226 442.423S124.125 528.597 68.472 584.382c-23.126 23.18-1.293 58.661-.198 60.278 26.582 39.292 67.11 72.501 76.679 77.567s43.342-12.946 45.593-20.264c2.252-7.318-6.427-30.12-6.427-30.12l79.039-30.671s-83.841 107.453-92.452 122.249c-13.37 22.974 46.295 71.945 56.99 71.945 30.958 0 215.584-184.036 229.656-190.254s33.865-4.172 57.414-7.88c35.497-5.589 79.146-56.849 79.146-56.849z" fill="#bfd1d8"/><path d="M68.274 644.66c26.582 39.292 67.109 72.502 76.678 77.568s43.342-12.946 45.593-20.264c2.164-7.032-5.761-28.351-6.384-30.007-17.273 2.792-60.381 8.061-72.682-6.421-1.518-1.788 38.716-4.411 32.924-4.946-41.317-3.815-65.562-13.393-79.227-21.554 1.578 3.217 2.854 5.264 3.098 5.624zm525.637-64.276L365.226 442.423s-41.727 14.914-94.467 36.349c25.183 23.95 40.337 20.97 68.995 26.029 46.581 8.224-22.274 83.763-76.597 136.372-1.878 2.411-7.011 9.001-12.13 15.597 48.194-39.991 122.634-102.444 141.996-122.545 40.124-41.653 126.633 83.647 157.028 86.501 23.926-16.188 43.86-40.342 43.86-40.342z" fill="#8b9aa0"/><path d="M451.159 611.904c-7.57 39.603-25.111 59.922-25.111 59.922 12.218-10.642 24.272-21.972 31.303-26.712 0 0 10.264-31.975 9.006-30.395-2.204 2.767-12.981 29.836-14.072 26.455-.166-.516.903-39.88-1.126-29.27z" fill="#8b9aa0"/><path d="M379.399 251.113c-10.682 18.64-78.997 47.098-68.862 81.673 9.548 32.57 65.934 58.587 77.121 73.4.727.962-.99 5.94-.99 5.94-3.388 13.438-9.381 20.54-14.031 24.501-13.249 11.286-25.308 10.572-36.109 20.093-3.379 2.979-3.957 14.657-3.548 16.514 4.693 21.289 47.578 70.075 56.358 64.684 7.948-4.88 15.471-6.942 22.676-7.406 45.114-2.902 77.606 77.336 131.925 78.08 12.667.174 29.449 1.164 42.041-11.161 8.298-8.122 7.66-19.574 12.121-42.294 1.038-5.285 11.766-45.824 11.766-45.824 4.135.065 51.568-94.52 49.134-114.211-4.535-36.694 96.63-13.674 86.048-45.255-21.46-64.045-15.557-223.92-191.916-160.054-35.813 12.969-137.466-1.964-173.734 61.32z" fill="#ff4e56"/><path d="M419.477 215.35c-16.315 7.758-30.485 19.023-40.079 35.762-10.682 18.64-78.997 47.098-68.862 81.673 9.548 32.57 65.934 58.587 77.121 73.4.727.962-.99 5.94-.99 5.94 5.734 6.346 11.266 12.272 11.675 11.928.026-.022.023-.064.022-.083-.234-4.749-7.767-6 1.594-18.347 8.278-10.915.6-141.555 19.519-190.273zm238.486 189.441c-6.98-11.035-14.864-25.598-21.22-43.544-25.671-72.472-4.813-142.182-5.03-141.511-33.531 103.956 21.125 179.402-29.802 222.686 0 0 30.856-23.903 31.671-29.396 1.166-7.868-3.444 70.06-40.989 83.69-29.289 10.634-146.879-13.811-148.387-10.09-1.349 3.329 126.386 13.917 87.245 68.225-6.797 9.43-79.18-7.615-72.503-1.387 10.707 9.986 27.836 28.931 55.555 48.116 17.124 11.852 72.816 14.927 79.408-17.649 8.835-43.657 15.956-74.62 15.956-74.62s20.588-14.311 48.096-104.52zM540.134 217.863c-.841 8.054 21.939-10.729 53.777-39.649-28.675 5.857-40.044 12.578-52.995 14.673zm-170.737 308.07s17.005-1.854 58.784-22.011c10.105-4.875-39.096 34.176-39.096 34.176-5.041 1.883-13.44-5.448-19.688-12.165z" fill="#cf3f45"/><path d="M432.436 331.318c-7.855-13.254 8.938-27.86 14.94-15.888 2.007-4.259 12.573-3.99 12.501 3.929l2.667 21.158z" fill="#eebe8a"/><path d="M411.877 350.948c-11.842-8.134-2.936-24.389 7.585-23.004 5.893-9.429 19.72-8.059 21.825 3.058 5.346-2.043 11.262 3.865 8.082 10.13 3.343.27 5.27 11.267-2.62 14.549-10.758 4.475-34.872-4.733-34.872-4.733z" fill="#ffe3b9"/><path d="M463.942 346.382c-18.838-14.387-14.494-29.218-3.035-31.517 3.859-8.006 15.158-9.764 19.552-1.203 7.17-7.554 20.234.146 16.417 12.01z" fill="#ffeed7"/><path d="m463.721 351.246-2.207-1.686c-10.931-8.348-16.048-18.12-14.04-26.812 1.27-5.49 5.241-9.619 10.788-11.334 2.879-4.493 7.82-7.346 13.062-7.412 3.85-.09 7.369 1.429 9.996 4.084 4.023-2.047 8.845-1.926 13.027.554 5.104 3.027 9.043 9.847 6.337 18.257l-.446 1.386zm7.787-39.244-.084.001c-2.871.035-5.584 1.841-6.913 4.599l-.864 1.794-1.952.392c-3.395.681-5.736 2.781-6.426 5.764-1.138 4.922 2.187 11.131 8.961 16.925l29.177-18.347c.712-3.78-1.07-6.379-3.141-7.607-1.873-1.11-4.671-1.458-6.905.895l-3.884 4.091-2.576-5.019c-1.473-2.872-3.729-3.488-5.393-3.488z" fill="#f8c792"/><path d="M449.178 362.644c4.55-9.476-4.942-28.18-18.613-25.083-1.307.296-4.902 2.45-6.697 7.157-5.183-8.663-16.817-1.716-13.182 8.915 6.491 13.201 16.38 18.762 25.744 18.099 4.616-.327 10.156-3.69 12.748-9.088z" fill="#ffeed7"/><path d="M434.929 375.785c-11.191 0-21.496-7.501-27.833-20.388l-.195-.471c-2.749-8.043 1.077-14.692 6.277-17.104 2.938-1.361 6.641-1.487 9.867.44 2.256-2.727 4.911-4.213 6.636-4.604 6.971-1.578 13.83 1.116 18.83 7.389 5.596 7.02 7.393 16.83 4.272 23.327-2.987 6.222-9.596 10.888-16.07 11.347a24.81 24.81 0 0 1-1.784.064zm-20.533-23.673c5.262 10.543 13.159 16.241 21.751 15.63 3.085-.219 7.437-2.687 9.426-6.829 1.8-3.75.343-10.285-3.317-14.878-1.761-2.21-5.489-5.727-10.721-4.592-.594.239-2.75 1.607-3.928 4.699l-2.938 7.707-4.233-7.077c-.747-1.249-2.027-2.556-3.893-1.691-1.549.718-3.365 3.173-2.147 7.031zm17.061-10.652h-.003z" fill="#ffd9a3"/><path d="M388.453 366.897c-.266-2.586.639-4.794 4.002-6.209-1.608-7.709 6.325-9.834 10.624-7.11-.065-5.556 8.867-8.227 12.077-4.482 8.479-2.576 15.85 5.222 8.767 13.584 4.182-.345 5.565 1.663 4.907 5.387-26.121 6.654-43.247 7.617-40.377-1.17z" fill="#ffcd93"/><path d="M441.458 348.196c-.126-1.337-.886-4.873.257-7.701.419-1.036 1.138-3.973 4.978-6.026 6.016-3.216 12.456.386 12.898.643 5.295-5.177 16.238-1.964 14.52 5.694 8.411-6.524 16.408 6.623 10.793 12.526-5.127 5.391-19.783 11.725-35.239 12.105-13.708.338-15.19-13.628-8.207-17.241z" fill="#ffeed7"/><path d="M449.165 369.444c-9.311.001-14.042-5.439-15.368-10.614-1.22-4.756.165-9.528 3.406-12.498-.195-2.017-.239-4.754.803-7.334l.094-.251c.523-1.434 1.915-5.241 6.707-7.805 5.529-2.956 11.129-1.666 14.286-.457 4.058-2.433 9.439-2.603 13.733-.206 2.133 1.188 3.695 2.882 4.591 4.864 3.481-.474 6.984.816 9.675 3.793 4.078 4.511 5.46 12.16.712 17.153-5.942 6.248-21.796 12.948-38.039 13.348-.202.005-.402.007-.6.007zm2.984-32.299c-1.164 0-2.396.225-3.569.852-2.099 1.123-2.6 2.494-2.966 3.496-.07.191-.133.36-.19.502-.565 1.399-.261 3.667-.098 4.885.05.37.092.689.115.942l.253 2.688-2.397 1.24c-1.538.796-2.29 2.985-1.75 5.094.775 3.027 3.726 4.692 8.021 4.596 14.77-.362 28.329-6.542 32.439-10.862 1.415-1.488.719-4.541-.85-6.275-1.855-2.052-3.511-1.173-4.595-.334l-8.79 6.819 2.436-10.855c.193-.858.191-1.846-1.278-2.666-1.78-.993-4.789-1.005-6.542.708l-2.174 2.126-2.631-1.527c-.033-.022-2.519-1.429-5.434-1.429z" fill="#ffd9a3"/><path d="M531.058 331.691c12.891-10.044 2.48-23.394-7.917-15.406 1.281-6.79-6.17-11.151-12.028-7.374-5.112-11.69-18.987-4.856-15.603 5.878-4.697-5.217-12.043-1.365-11.071 6.098-8.431 4.438-5.191 24.953 5.747 24.819z" fill="#dcaf82"/><path d="M482.714 354.162c-16.01-2.009-16.953-19.794-2.864-19.825.398-1.399.893-3.694 2.353-6.372.614-.753 4.917-7.618 13.994-5.489 1.165.273 3.878.818 6.628 3.368 10.654-6.597 21.596 1.711 15.531 13.478z" fill="#eebe8a"/><path d="M396.172 387.766s67.072 154.554 74.081 164.971c8.863 13.173 28.117 9.968 28.121 9.981s34.127-3.89 62.685-17.637c10.663-5.133 17.043-14.573 17.031-23.071-.029-20.441-34.63-183.438-34.63-183.438-37.827 25.606-129.898 49.369-147.288 49.194z" fill="#bc8f53"/><path d="M518.703 352.386s.099-.174.167-.461c-43.61 19.943-108.398 35.985-122.697 35.841 0 0 44.214 101.882 64.597 145.783z" fill="#ffd9a3"/><g fill="#bb241d"><path d="m401.643 388.373 76.493 171.352c.627.353 1.045.536 1.946.895l-76.571-172.332zm11.644-1.918 73.745 176.109 1.427.207-73.287-176.624zm10.717-4.284 73.793 180.627 1.301-.166-73.359-180.463zm13.908-4.465 69.034 183.736 1.146-.203-68.259-183.362zm15.86-3.381 64.261 184.951 1.043-.229-63.362-184.239zm14.857-3.903 59.379 186.46 1.145-.3-58.614-186.024zm13.977-6.283 57.62 189.176 1.112-.364-56.933-188.645zm14.575-5.605 51.569 191.795 1.495-.573-51.182-191.004zm13.21-4.42 47.512 192.438 1.381-.632-47.089-191.543zm11.508-6.272 45.911 192.997 1.191-.998-45.327-191.723zm13.297-5.449 40.235 189.462c.324-.605.631-1.243.925-1.905l-39.292-187.228z"/></g><path d="m463.823 524.022-60.297-135.707-1.868.085 61.488 137.74zm3.727-11.652-52.363-126.196-1.885.308 53.584 127.963zm4.896-15.311-46.692-114.863-1.734.002 47.767 116.923zm5.434-16.992-38.032-102.162-1.921-.171 39.261 104.494zm6.764-21.154-28.915-84.077-1.942-.484 30.149 86.774zm6.922-21.643-21.012-66.684-1.91-.136 22.099 69.393zm7.648-23.918-14.794-49.019-1.799-.166 15.768 51.767zm7.883-24.649-8.019-29.923-1.882-.219 8.925 33.194zm5.114-34.298-1.805-.264 3.373 13.664.976-3.05z" fill="#e5524d"/><path d="M546.122 325.735c-1.409-4.331-2.911-7.758-8.103-9.145-.352-.094-2.885-.66-3.346-.763 1.643 1.627 2.694 6.478.842 8.782-12.72 15.827-118.22 53.529-144.026 47.247-4.412-1.074-3.378-6.327-.176-10.604-3.138 1.692-5.237 5.214-6.238 7.47-1.66 3.739-1.378 7.876-.028 11.384 0 0 1.507 3.942 6.254 6.731 17.255 10.141 139.949-31.778 152.752-48.99 4.634-6.231 2.069-12.112 2.069-12.112z" fill="#e4c9a2"/><path d="M518.703 352.386s4.214-7.366-23.495-5.846c-36.729 14.961-86.982 29.389-103.719 25.315-4.411-1.074-3.377-6.327-.176-10.604-3.138 1.692-5.237 5.214-6.238 7.47-1.66 3.739-1.378 7.876-.028 11.384 0 0 1.507 3.942 6.254 6.731 13.056 7.673 86.476-14.458 126.983-33.141z" fill="#ffe5c4"/><path d="M333.908 262.869c-1.01 19.852-73.363 125.672-64.728 195.067 1.027 8.251 7.852 27.995 30.345 35.687 25.02 8.556 51.089-15.85 64.036-32.544 15.448-19.92 25.279-51.854 24.097-54.892s-17.386-16.257-29.204-22.839c-3.164-.044 9.14-103.827 13.625-104.067 3.055-.164 21.193-13.532 36.024-32.899 7.739-10.599 12.025-31.704 12.786-36.358.762-4.654-1.656-26.313-4.234-27.482-7.711-3.495-12.758 10.003-12.758 10.003-1.851-13.568-12.478-15.094-19.014-12.374-13.757-.133-25.871 3.178-37.463 7.587 0 0-7.554.37-12.804 5.691-5.25 5.32.302 49.567-.708 69.42zM635.256 367.66s10.706 57.847 6.035 62.821-117.522 29.27-125.587 28.602-22.18-25.994-43.848-33.428c-32.838-11.267-61.71-23.54-61.734-14.526-.065 24.875 41.761 17.249 42.29 33.348.332 10.114-24.343 15.688-24.343 15.688l-5.826-12.709s-12.369 12.659-10.849 20.687c1.081 5.71 12.162 9.47 12.162 9.47-9.779 7.014-6.231 14.999 8.41 23.791-2.487 8.109 2.676 14.198 14.652 18.486-6.173 3.631 2.754 13.768 9.26 14.707 17.741 2.562 48.889-10.684 67.941-19.254 35.863-16.132 130.713 5.789 183.684-22.836 28.724-15.522 27.29-144.862 27.29-144.862-13.423-12.135-98.464-4.4-99.537 20.015z" fill="#fcb899"/><path d="M358.453 383.347c11.369 55.424-27.636 83.072-29.494 87.252s21.365-11.843 29.26-24.151c7.896-12.308-11.926 32.79-11.926 32.79 20.401-12.578 43.091-60.576 41.542-72.341-.607-4.61-17.632-16.742-29.382-23.55zm-14.838-172.258s6.218 3.284 10.278 7.032c13.385 12.356 5.274 43.682 5.274 43.682 10.835-9.195 12.374-33.945 14.336-32.863 6.32 3.486 32.31-6.35 31.24-17.987 1.942 2.47 5.086 2.794 8.385 2.84-7.366-2.261-9.354-10.569-9.233-21.249a21.598 21.598 0 0 0-1.274-5.033c1.091 5.991.837 20.441-.377 23.739-.54 1.467-11.729 12.919-13.367 12.794-4.82-.367-4.529-9.647 3.008-16.792 0 0-4.584-21.18-7-26.826 0 0 6.103 24.641 4.619 27.327s-10.539 14.499-12.03 15.163-8.038-5.677-.877-15.037c1.135-1.483-4.685-18.012-6.561-19.432-1.876-1.421-22.64-1.016-22.618-.69.055.808 20.409.397 21.892 2.909 1.482 2.513 5.909 15.207 4.781 18.466-1.696 4.9-7.883 16.816-11.138 17.238s-7.032-8.591-.641-15.358c1.697-1.797-6.511-8.139-10.719-11.419 6.447 5.41 9.884 11.554 4.734 12.172s-12.712-.676-12.712-.676zM642.45 421.72s23.939-4.062 25.494-1.934c3.062 4.191-29.603 12.184-29.603 12.184 3.546-.645 4.197-4.625 4.109-10.25zm-227.305 36.993c1.619.857 12.924 1.451 12.924 1.451l-5.826-12.709c-.001 0-9.676 9.894-7.098 11.258zm8.411 18.899s13.587 2.154 14.788 2.784c2.758 1.447-18.374.535-18.374.535.703-.948 1.86-2.042 3.586-3.319zm8.409 23.791s15.947-2.611 17.447-2.66c3.171-.103-18.055 6.3-18.055 6.3-.198-1.078.079-2.317.608-3.64zm14.653 18.486s13.63-3.976 15.076-4.164c2.167-.282-17.041 8.691-17.041 8.691-.458-3.172.488-3.725 1.965-4.527z" fill="#f79478"/><path d="m549.767 156.035.495 51.638c-3.809 18.795-33.828 20.581-41.069 7.067l-3.444-35.888c21.147-5.346 24.36-4.413 44.018-22.817z" fill="#fcb899"/><path d="m549.798 159.26.253 26.43c-15.478 19.426-28.538 24.681-41.313 24.316l-3.073-31.85c17.61-1.675 31.707-6.454 44.133-18.896z" fill="#f79478"/><path d="M587.121 85.267c18.485-1.268 19.334 29.4 4.276 41.276-5.94 4.685-17.075 1.813-16.615 1.139-3.095 7.288-14.79 36.19-30.537 48.181-7.018 5.344-22.663 15.852-45.467 14.864-4.356-.189-25.544-1.188-41.013-19.781-19.052-22.902-12.494-54.525-11.688-57.035-2.297-5.307-13.072-28.432-3.063-52.204 15.671-37.219 63.738-36.95 66.407-37.084 4.695-.235 40.811-1.791 57.445 31.307 12.156 24.189 4.463 52.598 5.621 48.414 2.292-8.291 3.557-18.318 14.634-19.077z" fill="#fcb899"/><path d="M494.077 134.227c1.668-3.338-9.013-14.138-14.532-12.004-1.724.667-3.187 2.69-3.264 4.663-.104 2.684 2.384 4.584 3.536 5.465 4.909 3.749 13.053 4.29 14.26 1.876zm78.114-28.541c-19.265-26.899-49.9-51.22-130.761-39.352 1.311-.192 3.61-49.046 76.297-42.28 26.476 1.877 53.013 18.959 55.943 53.098 1.811 21.112-1.479 28.534-1.479 28.534z" fill="#f79478"/><path d="M512.149 127.145c.568 9.68 8.987 16.981 18.804 16.308s17.315-9.065 16.747-18.745-8.987-16.981-18.804-16.308-17.315 9.066-16.747 18.745z" fill="url(#a)"/><path d="M444.557 124.096c-.368 3.732-.415 8.34.027 13.285.428 4.795 1.466 8.933 2.347 12.536 0 0 5.762 2.696 11.398.354.729-.303 3.185-1.438 5.239-3.84 5.247-6.136 4.803-15.822-1.375-21.211-7.609-6.639-17.636-1.124-17.636-1.124z" fill="url(#b)"/><path d="M493.321 149.56c-1.119-1.689 4.39-5.834 9.992-9.141 4.668-2.755 15.92-4.607 14.438-3.692-3.918 2.417-7.368 1.188-22.7 12.967-1.15.883-1.661-.031-1.73-.134z" fill="#f98d79"/><ellipse cx="509.965" cy="98.896" fill="#020202" rx="6.591" ry="6.475" transform="matrix(.9367 -.35 .35 .9367 -2.3534 184.7701)"/><ellipse cx="459.72" cy="107.667" fill="#020202" rx="6.591" ry="6.475" transform="matrix(.9367 -.35 .35 .9367 -8.6029 167.737)"/><path d="M496.888 86.866c-1 1.422-1.408 6.088 3.495 4.367 22.199-7.791 35.438-7.158 32.321-9.201-6.742-4.417-29.734-3.816-35.816 4.834zm-25.372 1.08c.909 1.113 1.756 5.149-2.092 4.299-17.424-3.849-27.201-1.516-25.12-3.725 4.502-4.78 21.68-7.342 27.212-.574z" fill="#582c0d"/><path d="M428.964 47.036c-1.774 17.154 9.759 48.789 11.143 48.618.074-.009-.527-2.487-.464-2.594-.293-14.985 8.462-35.711 8.462-35.711.627 1.878 28.531 20.673 50.822-2.587-10.661 2.902-23.284 2.232-27.293-7.094 23.973-3.191 44.308-3.037 52.027 17.949 3.345-4.821 3.613-11.595-2.076-19.58 15.817 3.564 20.779 6.644 27.313 23.229 3.73-6.984 3.701-15.357 1.512-21.618 16.478 12.317 7.853 36.853 21.372 61.923 1.826-16.261 7.972-27.076 23.621-22.17 0 0 .756-34.016-.783-44.446-1.307-6.485-3.022-19.906-15.478-26.859-25.939-14.404-53.351-12.492-63.711-11.77-45.158 3.15-84.693 25.555-86.467 42.71z" fill="#582c0d"/><path d="M571.2 25.581c.83-.056 7.482-15.02-6.038-21.847-8.378-4.23-23.407-4.784-34.605-2.08-4.932 1.191-9.71 3.155-9.289 3.817.751 1.179 16.511-4.153 29.645-1.396 10.942 2.297 15.46 9.244 17.361 12.166 3.505 5.391 2.495 9.369 2.926 9.34z" fill="#582c0d"/><path d="M594.107 26.115c.719-.423-.352-16.624-15.705-16.554-9.513.043-23.268 6.328-32.05 13.76-3.867 3.273-7.233 7.16-6.543 7.553 1.229.702 12.87-11.105 25.961-14.591 10.906-2.904 18.233 1.189 21.315 2.911 5.683 3.175 6.649 7.14 7.022 6.921z" fill="#582c0d"/></svg></g><g transform="translate(265.0 1144.0) rotate(0.0 548.0 493.0) scale(1.234356557857085 1.2336087058243597)"><svg width="887.912" height="799.281" viewBox="0 0 887.912 799.281"><path d="M427.574 52.931c-30.974-27.383-99.383-82.226-226.14-33.424C37.252 82.717 33.269 269.204 11.762 426.45c-4.279 31.286-66.046 205.432 143.167 320.259 231.569 127.096 672.434 2.424 715.542-147.722 53.371-185.892-14.36-209.403-222.337-345.483-66.808-43.713-143.04-132.041-220.56-200.573z" fill="#ffa412"/><g fill="#e98f07"><path d="M195.074 716.835c-67.592-27.096-116.83-109.164-122.773-104.307-5.787 4.73 42.688 77.015 41.422 77.268-14.9 2.98-75.727-72.965-105.417-111.402 15.208 56.141 54.834 117.937 146.622 168.315 129.549 71.103 324.597 63.403 478.866 16.534-15.743-9.976-254.173 27.572-438.72-46.408zm520.113-29.271c-119.793-46.86-165.002-183.955-203.972-206.471-88.996-51.42-187.959-29.942-191.178-39.829-2.462-7.559 108.248-19.663 105.945-19.914-219.855-23.953-263.188 10.582-259.684 3.983 6.553-12.342 105.838-27.936 104.352-33.456-2.728-10.132-57.171-14.188-68.672-15.97-13.075-2.026 42.938-3.367 59.524-.431 21.93 3.882-72.371-121.422-177.289-186.769-6.461-4.024-23.908-21.303 82.085 37.482 7.604 4.217-31.961-132.248-16.728-116.3 11.063 11.583 115.535 199.302 220.535 218.073 95.211 17.021 137.715-99.973 166.6-111.332 9.822-3.862-5.648 20.95-6.364 42.776-.849 25.87 135.593 133.851 163.623 160.898 54.75 52.829 112.394 243.259 72.067 266.703-6.642 3.861-22.501 11.644-50.844.557z"/></g></svg></g><g transform="translate(386.0 646.0) rotate(0.0 739.5 769.0) scale(1.2335310263495238 1.23400724999318)"><svg width="1198.997" height="1246.346" viewBox="0 0 1198.997 1246.346"><linearGradient id="c" gradientUnits="userSpaceOnUse" x1="229.307" x2="265.018" y1="387.664" y2="387.664"><stop offset=".382" stop-color="#f89578"/><stop offset=".994" stop-color="#fdb899"/></linearGradient><linearGradient id="d" gradientTransform="matrix(-.9117 .1186 -.1332 -.9707 13194.4678 -1872.6769)" gradientUnits="userSpaceOnUse" x1="14200.998" x2="14224.424" y1="-590.011" y2="-590.011"><stop offset=".197" stop-color="#fdb899"/><stop offset=".724" stop-color="#f89578"/></linearGradient><path d="m651.5 1072.274 27.076 32.807 49.408-38.934-28.854-35.772z" fill="#dbded6"/><path d="M660.373 1098.037c-1.15 1.793 8.415 5.791 15.588 16.583 5.987 9.009 7.365 25.698 20.563 52.071 5.444 10.877 9.234 17.202 12.271 19.568 3.038 2.366 28.701-4.306 76.283-5.307 51.595-1.085 63.798-9.265 78.843-15.429 18.75-7.682 56.557-31.562 54.76-41.057-1.479-7.817-8.162-22.655-17.451-28.951-14.711-9.971-57.23 5.598-107.529-12.735-20.545-7.488-37.984-11.694-56.975-29.145-9.817-9.021-17.497-20.621-26.118-20.145-12.422.687-27.176 22.533-23.142 35.655 1.949 6.341 5.741 9.986 5.741 9.986-5.241 10.177-31.684 17.113-32.834 18.906z" fill="#b72e33"/><path d="M860.676 1143.377s-7.18-19.68-26.684-23.273c-28.119-5.18-44.481 6.929-70.891-1.813-13.065-4.325-20.555-8.988-36.64-22.31-9.839-8.15-16.991-21.812-26.69-20.275-2.533.401-3.594 1.52-6.564 3.426-5.241 10.176-31.685 17.111-32.835 18.904s8.415 5.791 15.588 16.583c5.987 9.009 7.365 25.698 20.563 52.071 5.444 10.877 9.234 17.202 12.271 19.568s28.701-4.306 76.283-5.307c51.595-1.085 63.798-9.265 78.843-15.429.761-4.223-3.244-22.145-3.244-22.145z" fill="#d9383f"/><path d="M918.682 1124.467c-1.479-7.817-7.991-22.751-17.186-29.185-5.028-3.519-13.771-3.796-24.946-3.401-15.008 6.132-19.3 37.216-12.533 56.648 1.283 3.683 3.727 8.872 8.58 12.98 19.734-9.97 47.634-28.853 46.085-37.042z" fill="#ecefe8"/><path d="M765.214 1169.635c10.779-2.053 48.483-3.252 66.468-7.956 16.681-4.363 77.551-27.934 82.691-49.578-1.166-2.515-2.493-4.878-3.473-6.323-5.17 21.638-66.079 45.244-82.756 49.605-17.985 4.704-55.69 5.903-66.469 7.956-43.529 8.291-59.256 6.166-64.896 3.859 1.129 2.248 2.204 4.37 3.198 6.226 5.319 2.363 20.742 4.686 65.237-3.789z" fill="#1d1c1c"/><path d="M918.805 1124.638c-.611-3.231-2.207-8.007-4.424-12.52l-.047.202c-5.14 21.644-65.971 44.997-82.652 49.36-17.985 4.704-55.69 5.903-66.468 7.956-44.5 8.476-59.92 6.152-65.236 3.79 3.375 6.805 6.097 11.718 8.451 13.551 3.038 2.366 28.906-4.39 76.488-5.391 51.596-1.085 64.056-9.429 79.1-15.593 18.75-7.682 56.585-31.86 54.788-41.355z" fill="#ecefe8"/><path d="M723.202 1120.837c0-1.112.379-2.142 1.022-2.992-3.099-4.714-9.317-8.567-15.816-7.508-8.577 1.398-14.333 9.881-12.855 18.949 1.477 9.068 9.628 15.286 18.206 13.888 8.108-1.321 13.686-8.975 13.025-17.467-2.1-.779-3.582-2.664-3.582-4.87z" fill="#fff"/><path d="M723.202 1120.837c0-.938.552-2.23 1.022-2.992-6.565 3.035-19.527 9.583-19.289 11.493.166 1.331 13.768-1.668 21.848-3.631-2.019-.812-3.581-2.717-3.581-4.87z" fill="#ebeee7"/><path d="M848.229 1090.799c-16.833 17.912-18.192 28.72-17.55 27.466-3.211 6.275 3.307-19.913 12.985-26.832.926-.662-2.293-2.487-6.187-1.593-3.715.853-22.978 27.776-22.69 30.496-5.114-6.908 13.503-27.802 13.804-29.538.305-1.755-4.425-2.189-4.425-2.189-7.791-1.441-25.355 21.068-27.539 27.922.728-7.594 5.944-20.538 18.331-28.538 1.082-.699-3.878-2.274-6.422-2.253-9.219.077-29.034 29.353-27.96 30.412-5.158-4.787 14.899-29.413 15.975-31.487.893-1.722-1.854-2.355-4.55-2.5-10.082-.506-28.806 27.994-28.806 27.994.556-4.293.737-4.185 3.382-10.211 4.856-11.067 16.277-19.855 15.296-21.342-5.576-8.457-30.074 26.242-32.936 26.484s23.181-26.258 23.335-28.772c.035-1.582.128-1.988-2.072-3.408-7.207-4.655-32.535 29.507-34.421 26.966-1.886-2.54 20.16-27.145 21.143-28.397s1.99-3.088-.171-5.086c-7.289-6.739-31.537 18.351-36.251 23.612-4.715 5.261 2.249-15.94 23.722-25.954-1.886-9.736-32.979 17.891-27.983 28.604.671 1.439 1.679 1.781 3.243 1.797 1.997.021 27.926-23.517 31.293-24.258s-21.852 21.256-20.581 28.845c.355 2.119.967 3.845 4.045 5.424s27.202-25.377 33.243-27.127-26.749 17.462-22.411 31.024c.75 2.344 2.228 3.714 4.616 2.734s31.5-40.489 14.784-15.142c-5.85 8.871-10.174 23.516-2.876 23.67 3.457.077 26.909-33.752 28.218-32.786.18.133-.184.899-.302 1.158-1.487 3.278-15.518 19.638-14.63 27.311-.122 1.727.409 5.639 3.212 5.92 7.264.73 24.461-32.636 29.196-30.714 0 0-20.313 17.772-13.95 30 1.1 2.114 2.812 1.56 4.365.878 1.553-.681 13.192-21.157 20.529-25.874 7.337-4.716-11.672 11.979-7.983 25.064.977 3.467 6.075 4.655 6.833 3.806 4.1-4.591 12.278-24.944 14.314-24.522 0 0-7.734 15.947-2.624 25.092 1.052 1.882 1.976 2.436 2.414 1.665 5.729-10.1 12.49-26.162 25.47-35.827-1.03-1.783-7.336-1.155-8.428.006z" fill="#fff"/><path d="M278.592 786.996c101.665 65.894 187.798 59.775 190.151 66.836 39.066 117.197 164.173 214.452 174.185 223.774 8.071 7.515 68.15-43.058 63.562-51.26-3.125-5.587-75.202-175.43-75.202-175.43s110.907 22.688 116.559 25.98 123.022 199.465 161.444 242.864c11.073 12.507 91.505-31.695 83.779-50.362S865.518 757.343 831.63 745.576c-102.188-35.482-345.002-51.774-345.002-51.774-96.603 6.336-221.464 84.49-208.036 93.194z" fill="#1d1c1c"/><path d="M316.223 808.683s-1.565-17.979 9.907-39.572c8.001-15.062 90.426-53.346 83.792-53.143-27.583.844-136.247 55.506-132.328 69.459.598 3.193 38.629 23.256 38.629 23.256zm170.406-114.88c118.609 36.712 250.976 179.961 254.163 172.736 1.4-3.174 4.984-28.895 7.237-27.297 1.86 1.319-.181 37.654-.181 37.654-19.431-6.671-70.324-16.565-116.559-25.981-60.729-106.912-61.249-157.112-208.853-144.583 10.345-2.157 19.98-8.386 64.193-12.529zm506.75 376.509c2.128 8.911-13.003 23.88-36.378 36.66-26.317 14.389-42.754 17.688-47.709 12.789-1.475-1.458 13.816-18.975 37.344-32.526 36.167-20.83 46.265-18.925 46.743-16.923zM463.642 851.541s1.06-30.137 1.887-29.596c2.338 1.528 2.871 22.466 4.743 25.586s10.11-17.099 8.487-8.487c-4.643 24.64-3.946 31.159-3.946 31.159s-5.476-14.937-6.07-16.371c-.593-1.434-5.101-2.291-5.101-2.291z"/><path d="M510.536 775.936c15.933-40.955 49.848-31.574 53.806-33.233 2.654-1.113-26.208-7.705-41.865 6.042-17.696 15.538-15.604 36.605-11.941 27.191zm286.103 9.414c12.748-32.698 33.09-31.612 35.863-35.098 1.481-1.862-16.385-3.792-28.514 10.948-8.638 10.499-10.629 32.564-7.349 24.15z"/><path d="M2.4 305.247c3.897 2.603 5.369 2.235 6.289 3.155s3.509 125.036 27.627 179.135c2.09 4.688 20.893 26.017 48.504 66.698 22.946 33.808 32.146 84.884 80.455 126.741 13.345 11.563 32.715 97.199 72.262 111.172 17.1 6.042 34.941 4.065 45.07-4.798 126.415-110.613 238.558-69.325 208.483-96.85-6.258-5.728-23.789-2.545-29.055-8.665-8.626-10.026 6.651-22.379-1.529-38.74-5.097-10.195-27.257-4.148-29.689-46.419-1.405-24.434 115.061-74.081 130.23-72.451.539.058 1.281 1.494 4.409 1.678s26.321-8.154 29.449-14.41-28.099-82.851-38.955-81.379-31.901 7.703-33.883 11.51c-.794 1.525-.322 3.242-1.104 4.784-.782 1.543-119.965 27.249-136.325 38.867-1.613 2.859-42.4 2.707-45.841-.594-9.016-8.648-19.702-3.523-24.473-7.912-15.66-14.407-11.712-12.428-24.717-18.267s-60.11-8.046-72.807-4.918c-12.696 3.128-15.629 6.672-27.601 15.272-2.992 2.149 1.015-.485-31.916-7.814-1.128-.251-7.106-16.801-15.741-21.627 0 0-31.477-131.741-30.553-132.97s2.372-.619 4.042-3.195 2.337-25.086-3.298-31.097c-2.76-2.944-99.916-22.081-105.252-9.752-7.475 17.27-7.978 40.243-4.081 42.846z" fill="#2b3d51"/><path d="M253.702 526.292c17.099 30.635 5.749 50.298 12.524 55.254 2.398 1.754 13.611-3.322 19.477 2.977 2.753 2.956 3.363 7.217 3.429 9.104.338 9.737-2.029 35.227 6.676 42.011 24.316 18.951 55.399 43.399 53.395 40.656-30.957-42.366-43.644-44.232-45.758-59.563-1.897-13.753 12.475-44.311 3.981-59.422-6.325-11.252-20.291-10.206-18.574-20.028 7.652-43.771 10.855-45.187 8.052-58.944-1.087-5.334-77.477-4.569-78.747-1.433-2.285 5.647 7.59 8.045 35.545 49.388z" fill="#fff"/><path d="M349.203 676.295c-30.957-42.367-43.644-44.232-45.758-59.563-1.897-13.753 12.475-44.311 3.981-59.422-6.325-11.252-20.291-10.206-18.574-20.027 7.652-43.771 10.855-45.187 8.052-58.944-.462-2.269-14.549-3.434-30.684-3.782 14.124 6.546 26.631 6.207 20.614 58.772-2.453 21.431 20.469 17.998 15.292 79.003-1.264 14.895 8.646 30.718 19.563 43.492 15.909 12.371 28.829 22.27 27.514 20.471z" fill="#ecefe8"/><path d="M207.973 456.43c-8.591 3.585-20.602 13.183-21.712 15.961-9.054 22.659 51.926 67.811 51.443 63.94-.484-3.871-3.621-28.361-2.794-28.495s21.822 25.776 21.822 25.776c-5.468-17.826-42.425-54.141-38.575-56.707s73.956-3.293 78.747 1.433c4.79 4.726-10.223 64.711-7.4 58.493s15.616-37.374 17.368-38.256 14.958 27.561 15.404 25.07c.446-2.492 6.159-28.307-6.88-45.396-1.585-2.076-5.863-8.371-18.859-16.563-12.294-7.751-62.596-16.092-88.564-5.256z" fill="#212e3c"/><path d="M291.472 459.474c-.289-.191-.595-.377-.891-.567-15.936-5.911-50.302-10.747-73.865-5.236-7.618 7.418-1.383 21.515 1.615 25.357-.516-1.094-.613-1.831-.174-2.124 3.85-2.566 73.956-3.293 78.747 1.433 4.79 4.726-10.223 64.711-7.4 58.493 2.521-5.554 12.991-30.988 16.448-36.988 2.376-15.213.017-30.778-14.48-40.368z" fill="#161f29"/><path d="M9.01 307.622c51.911 10.926 73.062 7.2 100.225-.37 8.114 1.336-32.284 38.518-98.522 17.113z" fill="#212e3c"/><path d="M560.531 523.605s-23.995-42.793-33.021-62.44c-16.157-35.166 21.406 64.721 21.406 64.721 4.249-1.005 7.479-1.754 11.615-2.281z" fill="#161f29"/><path d="M93.389 567.583s3.5-5.574-3.255-47.372c-3.831-23.709 21.611 45.275 29.689 101.544zm68.168 30.001c-.985 2.523 10.353 16.029 11.8 22.71.918 4.241-43.989-8.666-43.194-7.125 7.549 14.628 121.628 52.774 112.214 46.756-25.296-16.171-79.873-64.767-80.82-62.341z" fill="#212e3c"/><path d="M263.529 564.855s-10.058 33.448-8.015 34.287c1.176.483 10.713-17.596 10.713-17.596-3.058-1.808-2.828-5.245-2.698-16.691zm25.605 27.608s-5.965 59.709 2.672 65.013c1.348.828 4.012-21.914 4.012-21.914-6.272-4.55-6.719-24.271-6.684-43.099z" fill="#161f29"/><path d="M322.753 643.895c.402 1.773 29.541 33.301 26.45 32.4s-12.869-9.245-12.869-9.245 43.483 39.448 44.529 42.526c1.819 5.349-55.997-12.807-51.209-8.684 3.21 2.764 53.8 23.304 53.8 23.304l15.581-5.408c.001 0-77.326-79.493-76.282-74.893z" fill="#212e3c"/><path d="M164.139 678.652s78.79 52.741 82.333 56.131c6.348 6.076-60.436-12.688-60.436-12.688-8.173-20.925-17.613-40.37-21.897-43.443z" fill="#161f29"/><g fill="#212e3c"><path d="m461.721 648.94-21.159 53.711s16.57-22.321 21.473-20.817c-8.626-10.026 6.651-22.379-1.529-38.74-5.097-10.195-27.257-4.148-29.689-46.419-.123-2.135.672-4.466 2.203-6.935-.67-9.436.489-19.286.489-19.286s-9.404 40.509-9.404 47.02c.001 6.509 21.702 24.232 37.616 31.466z"/><ellipse cx="304.183" cy="540.068" rx="3.741" ry="6.132" transform="matrix(.7418 -.6706 .6706 .7418 -283.6277 343.3964)"/><ellipse cx="320.124" cy="573.009" rx="6.132" ry="3.741" transform="matrix(.1738 -.9848 .9848 .1738 -299.7986 788.6819)"/><ellipse cx="349.478" cy="654.589" rx="3.741" ry="6.132" transform="matrix(.866 -.5 .5 .866 -280.4734 262.4372)"/><ellipse cx="371.339" cy="681.909" rx="3.741" ry="6.132" transform="matrix(.8412 -.5407 .5407 .8412 -309.739 309.0483)"/><ellipse cx="322.743" cy="616.732" rx="6.132" ry="3.741" transform="matrix(.0465 -.9989 .9989 .0465 -308.3182 910.4718)"/></g><path d="m916.793 1109.78 18.477 35.592 54.956-30.609-23.126-38.31c-20.694 9.654-37.678 20.683-50.307 33.327z" fill="#ecefe8"/><path d="M915.965 1123.688c1.435 5.314 6.737 8.396 12.216 28.933 2.807 10.522-4.377 27.626-7.063 62.043-.37 4.745-1.734 22.873 20.778 28.323 37.063 8.973 58.617-3.567 73.068-2.381 102.451 8.406 180.731-27.464 183.901-60.98.686-7.256-2.46-18.986-9.688-24.673-22.444-17.661-78.277 6.038-86.969 2.37s-40.641-21.564-61.189-47.457c-15.988-20.147-27.32-41.763-37.155-37.853-5.341 2.124-6.043 12.797-6.043 12.797s-8.617-6.595-15.403-5.806c-11.1 1.291-20.142 33.887-43.48 40.785-16.549 4.89-24.408-1.415-22.973 3.899z" fill="#ff4e56"/><path d="M1198.866 1179.625c.852-7.48-2.442-19.205-9.669-24.892-9.812-7.721-27.142-7.642-41.85-4.975-4.945 2.934-9.079 7.907-11.958 12.143-2.03 2.987-3.536 5.661-4.523 7.74-2.756 1.972-.578 10.106-.578 10.106s-68.99 29.008-96.147 33.781c-70.866 12.457-116.828-2.871-111.938 13.05 2.035 6.624 7.293 13.407 19.695 16.409 37.063 8.973 58.617-3.567 73.068-2.381 102.45 8.406 180.09-27.531 183.9-60.981z" fill="#ecefe8"/><path d="M1198.866 1179.625c.131-1.385.19-2.946.04-4.584-17.753-11.482-37.661.385-72.372 14.234-33.533 13.38-76.565 32.189-114.337 35.802-33.204 3.176-77.668 1.155-84.021 6.352a75.015 75.015 0 0 0-2.434 2.06c3.081 4 8.104 7.549 16.155 9.498 37.063 8.973 57.725-3.008 72.176-1.822 102.451 8.406 181.623-28.023 184.793-61.54z" fill="#dbded6"/><path d="M920.949 1217.489c.189-1.41 2.61-4.758 18.134-6.955s39.763.392 66.041-2.197c49.402-4.867 112.892-33.704 123.672-37.908 13.097-5.108 35.913-13.462 53.6-14.248 10.416 0 12.554 5.42 13.209 6.896 1.503 3.39 1.886 4.577 2.459 6.892 0 0-5.568-9.257-23.965-4.678-60.125 14.964-96.649 43.981-161.329 51.454-44.213 6.165-82.428-.976-90.492 10.051-.311.425-1.686-6.646-1.329-9.307z" fill="#1d1c1c"/><path d="M924.52 1141.105s3.95 13.833 13.132 17.301c6.813 2.573 13.194-2.669 14.237-1.081 1.888 2.873-25.693 20.198-25.693 20.198 4.247-18.626 3.583-24.431-1.676-36.418z" fill="#d9383f"/><path d="M980.022 1127.765c-11.147 0-22.029 10.454-22.029 20.656 0 .302.009.599.024.892 2.403 2.632 4.656 4.464 6.486 4.046-.603 2.331-.639 4.739-.409 7.182 3.591 2.647 8.486 4.077 13.925 4.077 11.147 0 20.184-8.27 20.184-18.472s-7.033-18.381-18.181-18.381z" fill="#fff"/><path d="M985.268 1133.548c.004 0 .014-.011.013-.014-.066-.112-27.263 15.78-27.263 15.78 2.403 2.632 4.656 4.464 6.486 4.046-.999 2.82-.409 7.182-.409 7.182-.768-.538 20.404-26.953 21.173-26.994z" fill="#ecefe8"/><path d="M1041.02 1109.865c-15.988-20.147-27.32-41.763-37.155-37.853-4.904 1.95-6.043 11.242-6.043 12.797 2.824 6.417 9.187 13.646 18.694 21.234 37.539 29.959 42.941 31.79 60.733 40.946 17.852 9.186 24.959 10.333 24.959 10.333-8.691-3.668-40.64-21.565-61.188-47.457z" fill="#d9383f"/><path d="M1083.536 1163.745c8.68-2.947 13.108-5.885 14.41-7.269 9.064-9.628-28.416 4.454-31.713 3.312-3.297-1.141 19.137-9.809 20.004-11.453.476-1.063.692-1.297-1.399-3.269-6.853-6.463-30.886 7.959-32.314 5.366s18.187-9.164 19.642-9.569 3.098-1.198 1.209-3.547c-6.371-7.921-25.027-4.618-31.929-4.079-5.453.426-8.606-8.391 18.393-5.421.555-7.499-33.088-1.482-30.401 8.102.361 1.288 1.405 1.981 3.166 2.706 2.248.925 28.971-2.474 32.977-1.443 4.005 1.031-17.911 5.063-18.569 10.818-.184 1.607-.12 4.199 3.071 5.544 3.615 1.524 23.038-7.459 30.466-6.7 4.854.496-22.027 6.776-22.563 14.558-.134 1.946 1.501 3.483 4.457 3.97 5.503.907 30.623-10.331 31.288-9.489.694.879-9.009 4.436-11.699 6.148-2.387 1.519-2.517 3.08 1.504 1.715z" fill="#fff"/><path d="M105.501 113.644C99.987 127.032 3.798 251.87 13.56 269.461c6.366 11.474 56.71 25.292 82.013 8.664 7.023-4.615 40.025-128.625 44.947-134.439 4.922-5.815 39.667-6.775 56.923-26.655 5.079-5.851 5.388-40.304 2.42-60.004-1.153-7.649-11.386-1.429-12.582 4.839 0 0-4.022-16.903-19.873-13.492-8.742-5.41-15.275-7.151-24.058-2.159 0 0-12.863-.249-22.093 12.593-4.636 6.451-10.242 41.449-15.756 54.836z" fill="#ffb493"/><path d="M197.443 117.032c5.079-5.851 5.388-40.304 2.42-60.004-1.153-7.649-11.386-1.429-12.582 4.839 0 0-.09-.373-.29-.988.995 17.284-42.62 23.787-52.453 49.259-4.409 11.42-1.906 26.339 5.982 33.548 4.922-5.814 39.667-6.774 56.923-26.654z" fill="#f79173"/><path d="M219.913 53.006s27.249 45.785 76.157 72.531c30.842 16.866 31.279 56.665 31.279 56.665s19.326-24.033 53.491-47.145c15.413-10.426 40.798-3.627 40.798-3.627L314.656 9.034z" fill="#ff4e56"/><path d="M295.341 125.131c-5.255-5.159-13.609-12.986-26.672-24.455-23.244-20.407-30.986-41.603-33.516-54.743l-15.24 7.073s26.98 45.325 75.428 72.125z" fill="#cf3f45"/><path d="m421.639 131.43-.322-.369c-5.212-3.476-15.044-8.766-24.002-6.505-11.414 2.881-25.611 16.947-25.611 16.947h.001a284.181 284.181 0 0 1 9.136-6.447c15.412-10.426 40.798-3.626 40.798-3.626z" fill="#d9383f"/><path d="M324.782.402 60.829 123.588a4.32 4.32 0 0 0-2.081 5.724 4.32 4.32 0 0 0 5.724 2.081L328.425 8.207a4.32 4.32 0 0 0 2.081-5.724 4.32 4.32 0 0 0-5.724-2.081z" fill="#1d1c1c"/><path d="M191.556 55.51c-13.781 11.005-.626 25.53-9.31 37.326-12.484 16.957-37.498 10.083-48.266 18.934-3.589 11.174-.979 25.045 6.54 31.916 4.922-5.815 39.667-6.775 56.923-26.655 5.079-5.851 5.388-40.304 2.42-60.004-.716-4.746-4.928-4.15-8.307-1.517z" fill="#ffb493"/><path d="M155.426 94.146c4.142 8.136 17.119 5.178 15.166-7.515 3.416 13.755 17.99 9.786 16.611-25.059-.614-2.198-5.164-16.347-19.795-13.198-8.742-5.41-15.275-7.151-24.058-2.159 0 0-12.863-.249-22.093 12.593-.601.836-1.219 2.16-1.85 3.846a142.362 142.362 0 0 1 3.086 5.696c4.944 9.637 9.15 14.362 17.719 26.658 8.147 11.692 17.788 6.064 15.214-.862z" fill="#ffb493"/><path d="M155.426 94.146c-4.955-12.68-12.866-41.949-10.212-41.116 2.032.638 14.457 45.102 14.457 45.102-2.059-.668-3.843-2.956-4.245-3.986zm15.193-7.329c-4.143-17.667-5.076-34.869-3.987-35.26 1.861-.668 7.343 41.279 7.343 41.279-2.073-1.624-2.867-3.934-3.356-6.019zm-27.923 11.205s-12.361-29.148-15.381-28.187c-1.451.462 8.296 18.57 8.296 18.57 3.542 5.122 3.335 5.726 7.085 9.617z" fill="#f79173"/><path d="M552.865 438.243s109.688-74.065 111.199-80.607c1.735-7.513-4.265-15.987-4.499-31.219-.244-15.842 14.672-42.899 15.21-43.882 4.239-7.75 11.212 1.277 8.714 14.33-1.985 10.37-6.952 15.607 1.456 19.254 8.151 3.535 22.58-9.469 30.592-17.967s34.355-56.055 40.061-44.188c2.449 5.093-23.551 48.802-20.88 50.258 2.671 1.457 47.807-53.612 50.645-38.997 1.365 7.032-38.263 47.738-35.592 50.651s43.375-42.89 46.859-30.106c1.787 6.555-40.3 44.875-39.332 47.102 2.428 5.584 36.904-19.423 38.361-9.469.275 1.876-9.78 9.937-49.314 37.878-28.849 20.39-42.424 22.418-45.829 27.242-47.456 67.229-117.057 123.772-117.057 123.772-8.591 3.83-35.768-69.256-30.594-74.052z" fill="#ffb493"/><path d="M663.517 358.563s30.71 19.681 24.152 19.468c-10.931-.354-30.939-14.264-30.078-14.004z" fill="#f79173"/><path d="M279.907 481.433c-2.691-17.143-.962-20.343.207-32.109l-53.446-11.187c.974 1.921 1.544 8.706 1.766 16.615.45 15.998-.282 21.066-.316 23.366-.266 17.784 52.618 9.436 51.789 3.315 0 0 3.715 23.663 0 0z" fill="#ffb493"/><path d="M279.7 480.811s-28.104-2.984-51.167-19.68c-.182-11.356-.238-18.814-1.864-22.994l54.068 10.979c-3.734 13.312-1.037 31.695-1.037 31.695z" fill="#f79173"/><path d="M171.772 381.17c-3.378 9.169 6.002 25.197 16.158 28.587 7.212 2.407 14.172-1.005 13.672-1.657 3.524 7.18 9.913 21.737 26.373 32.809 7.335 4.934 23.893 15.779 46.65 13.191 4.347-.494 28.805-6.853 42.985-26.941 19.887-28.173 4.02-58.292 4.557-60.904 2.9-14.087 5.386-24.859-4.143-41.845-23.201-46.403-61.794-38.781-64.472-38.732-4.711.088-49.003 1.615-63.701 36.355-10.742 25.389 8.8 56.315 5.537 53.337-8.388-7.655-19.594-4.013-23.616 5.8z" fill="#ffb493"/><path d="M280.394 386.3c-1.525-3.442 9.656-14.07 15.094-11.728 1.699.732 3.076 2.833 3.066 4.838-.013 2.728-2.591 4.579-3.785 5.437-5.084 3.651-13.271 3.942-14.375 1.453z" fill="#f89578"/><path d="M197.782 380.196c17.695-28.633 50.287-51.035 115.597-64.226-1.3.263-16.914-40.567-71.741-30.787-33.33 6.884-55.044 26.811-55.044 54.16 0 21.555 11.188 40.853 11.188 40.853z" fill="#f79173"/><circle cx="247.162" cy="387.664" fill="url(#c)" r="17.856"/><path d="M305.398 387.178c-1.462-7.698 2.732-14.959 9.367-16.219 6.953-.821 9.384 2.561 9.384 2.561 1.992 6.414 3.059 12.792 3.51 19.147 0 0-2.035 6.054-7.601 6.168-6.267 1.167-13.33-4.652-14.66-11.657z" fill="url(#d)"/><circle cx="303.856" cy="360.495" fill="#020202" r="6.595"/><circle cx="254.113" cy="360.495" fill="#020202" r="6.595"/><path d="M262.921 398.571c-.817.136 12.936 15.363 23.207 15.46 10.643.1 22.412-14.855 24.205-17.219a.186.186 0 0 0-.153-.299c-4.351.158-44.774 1.643-47.259 2.058z" fill="#fff"/><path d="M262.903 398.541c1.118-4.236 46.063-4.015 47.548-1.868" fill="#fa8e79"/><path d="M317.861 336.114c1.665.976 2.686 2.937-.617 2.679-8.395-.656-18.563-1.105-19.636-1.815-1.89-1.252.345-4.016 2.306-4.647 4.765-1.533 14.416 1.712 17.947 3.783z" fill="#bc7f63"/><path d="M338.053 300.408c6.029-11.183.449-18.882-15.443-23.486-4.883-10.173-15.578-12.16-29.92-9.008-8.686-11.941-23.172-14.837-44.076-7.721-16.408-15.764-39.469-7.54-49.224 15.764-15.893 5.312-21.539 13.48-20.59 23.486-15.38-.317-21.596 9.673-18.982 29.599-14.156 2.574-11.26 19.625-7.721 20.912-1.053 6.313 1.029 10.567 8.043 11.582-6.569 12.334-2.877 20.456 10.939 22.199.643-6.113 8.464-16.019 19.908-10.54a13.582 13.582 0 0 1 6.498 6.679c4.928 10.931 6.409 16.73 6.409 16.73s10.59-27.597.322-36.676c8.239-4.721 11.676-15.507 12.547-30.242 12.753 3.594 22.653 1.036 28.633-9.973 9.228 4.791 19.475 2.344 30.885-8.365 7.453 19.245 18.411 26.86 34.424 17.695 16.828 15.584 44.721-1.288 27.348-28.635zm-182.095 48.259s-4.126-6.245-1.609-11.26c1.413-2.815 5.791-4.826 5.791-4.826-4.425 4.551-5.396 10.026-4.182 16.086zm5.469 23.486c-1.252-3.733.009-7.979 3.217-10.617-.663 7.394.67 13.901 3.539 16.73 0-.001-5.428-2.153-6.756-6.113zm52.441-108.421c3.242-5.717 9.252-9.089 15.443-8.687 5.909.384 11.582 6.434 11.582 6.434-4.427-3.365-18.704-5.962-27.025 2.253zm101.986 18.338c.033-5.613-5.825-8.846-17.695-9.652 0 0 18.576-.876 19.947 4.826.429 1.785-2.252 4.826-2.252 4.826zm14.799 46.972c7.45-4.734 9.666-12.097 4.504-23.164 0 0 6.219 6.631 4.826 13.191-1.336 6.294-9.33 9.973-9.33 9.973zm-138.341 81.396c2.642 7.216 8.018 11.561 16.086 9.652-2.463-4.148-5.176-8.674-6.756-12.225-2.593 2.244-5.84 2.735-9.33 2.573z" fill="#bc7f63"/><path d="M235.428 338.51c-2.263.729-3.96 2.931.145 3.647 10.435 1.82 22.995 4.468 24.472 3.893 2.601-1.013.493-5.284-1.766-6.718-5.489-3.486-18.052-2.369-22.851-.822z" fill="#bc7f63"/></svg></g><g transform="translate(1064.0 1745.0) rotate(0.0 664.0 433.0) scale(1.0319476379822006 1.0315811542273385)"><svg width="1286.887" height="839.488" viewBox="0 0 1286.887 839.488"><path d="M77.205 787.805H37.266l18.629-83.028h29.808zm1154.322 0h39.939l-18.63-83.028h-29.808z" fill="#090f13"/><path d="M34.543 716.31H23.228C10.399 716.31 0 705.91 0 693.082V23.228C0 10.399 10.399 0 23.228 0h11.315z" fill="#5f767a"/><path d="M23.287 0h1263.6v716.31H23.287z" fill="#324144"/><path d="M131.802 631.69h1056.182v57.901H131.802zm979.25-287.44H203.077c-23.413 0-42.392 18.98-42.392 42.392v94.09h122.262c9.566 0 17.322 7.755 17.322 17.322v70.048c0 15.703 12.73 28.434 28.434 28.434h655.005c15.703 0 28.434-12.73 28.434-28.434v-70.048c0-9.566 7.755-17.322 17.322-17.322h123.982v-94.09c-.001-23.412-18.981-42.392-42.394-42.392z" fill="#202a2b"/><path d="M353.001 509.683h201.621v53.766H353.001z" fill="#090f13"/><path d="M793.745 839.48c-78.467 0-168.339-1.719-261.746-3.505-61.216-1.17-124.515-2.381-188.546-3.202-100.869-1.295-191.621-20.266-211.098-44.127-3.515-4.306-4.857-8.788-3.99-13.322 4.481-23.452 63.363-28.837 111.971-29.224 2.101-.018 4.233-.025 6.387-.025 108.1 0 282.792 21.051 519.458 62.603 30.724 5.394 54.783 7.124 71.507 5.15 15.521-1.835 21.301-6.44 23.417-9.98 2.834-4.741.677-10.438-2.031-13.876-13.402-17.014-70.676-38.037-131.312-60.294-82.146-30.153-175.252-64.33-194.463-101.123-13.362-25.593-.528-61.526 8.312-80.669l6.355 2.936c-19.339 41.877-13.603 64.647-8.462 74.493 17.958 34.395 109.715 68.075 190.67 97.792 64.267 23.59 119.77 43.963 134.397 62.533 4.084 5.185 7.2 14.005 2.542 21.799-9.356 15.654-43.723 18.391-102.144 8.134-240.964-42.307-417.49-63.34-524.578-62.473-93.537.745-104.132 18.205-105.151 23.539-.466 2.438.364 4.919 2.538 7.582 8.382 10.269 34.763 20.585 72.379 28.304 38.677 7.937 86.047 12.642 133.386 13.249 64.053.822 127.363 2.033 188.59 3.204 137.376 2.626 267.134 5.105 363.993 2.186 104.942-3.166 162.795-12.591 176.863-28.812 2.508-2.893 3.461-5.938 2.912-9.311-2.247-13.833-44.206-28.085-77.92-39.537-42.618-14.477-68.741-24.017-68.789-37.18l7-.025c.032 8.835 37.027 21.401 64.04 30.577 40.964 13.914 79.656 27.057 82.579 45.042.889 5.473-.637 10.525-4.533 15.02-15.85 18.275-71.963 27.905-181.941 31.223-31.099.936-65.583 1.319-102.592 1.319z" fill="#0a0d12"/><circle cx="387.479" cy="536.566" fill="#695084" r="9.322"/><circle cx="432.992" cy="536.566" fill="#5858bc" r="9.322"/><circle cx="474.631" cy="536.566" fill="#a55759" r="9.322"/><circle cx="520.144" cy="536.566" fill="#a9ae51" r="9.322"/></svg></g><g transform="translate(647.0 2182.0) rotate(0.0 172.5 172.5) scale(1.0350662442396312 1.0350662442396312)"><svg width="333.312" height="333.312" viewBox="0 0 333.312 333.312"><circle cx="166.656" cy="166.656" fill="#fff" r="164.656"/><path d="M166.656 333.312C74.761 333.312 0 258.551 0 166.656S74.761 0 166.656 0s166.656 74.762 166.656 166.656-74.762 166.656-166.656 166.656zm0-329.312C76.967 4 4 76.967 4 166.656s72.968 162.656 162.656 162.656 162.656-72.967 162.656-162.656S256.344 4 166.656 4z" fill="#ecefe8"/><path d="M289.939 58.443c8.807 58.703-15.254 125.182-68.549 172.72-51.677 46.096-117.922 62.86-174.154 49.768 11.113 11.565 34.457 32.684 70.56 43.929 4.368 1.361 25.787 7.371 48.859 7.371 90.937 0 164.656-73.719 164.656-164.656.001-41.868-15.634-80.078-41.372-109.132z" fill="#ecefe8"/><path d="M285.896 252.7c-5.204-11.306-12.942-25.036-22.938-37.662 10.029-23.222 17.07-48.074 21.18-74.524 15.455-10.466 29.807-22.157 38.18-33.253-8.941-23.555-23.485-44.994-41.497-61.952-16.071-1.647-33.467-1.847-49.538-3.494C212.05 23.244 179.422 9.35 165.39 6.461l-1.263-6.44c-37.407.267-74.391 14.56-100.88 35.925 14.161-2.436 30.165-3.23 42.027-2.66-7.232 16.958-11.847 33.628-9.594 49.542-19.726 15.467-36.9 31.616-50.658 48.678-13.355-1.387-26.536-1.404-39.431.84a164.706 164.706 0 0 0-.831 4.186c11.603-3.89 25.027-3.468 39.3-1.036 8.3 23.16 14.756 43.147 26.702 62.812-9.158 14.202-12.299 32.852-12.222 55.797-20.165-4.247-27.532-4.337-34.738-5.514 19.189 33.385 49.745 59.405 86.385 72.782 3.568-3.899 6.224-8.111 8.129-12.583 24.098-1.458 46.111-4.815 63.996-11.93 14.862 5.461 30.46 8.901 47.047 9.629l-7.974 15.498c1.534-.54 3.058-1.101 4.571-1.685l7.255-12.85c21.132-12.093 41.333-34.452 53.38-50.125 12.999-10.012 24.163-17.725 33.868-26.378.751-1.729 1.787-4.458 2.434-6.151-15.669 14.116-28.331 22.708-36.997 27.902zM109.539 33.836c15.695-12.843 50.995-24.194 55.713-23.248 10.317-.055 44.25 14.891 62.931 32.719-2.556 17.314-4.259 33.745-4.896 49.071-28.046-.627-56.131 10.286-68.352 20.97l-54.613-30.814c-4.402-7.429-.299-32.825 9.217-48.698zm70.983 259.72c-15.845 7.153-37.618 10.555-62.316 12.106-7.604-9.969-31.119-29.82-56.401-49.798-.222-22.141 2.307-42.043 11.857-56.233 22.086-.391 45.189-5.107 68.881-12.332 13.327 19.5 30.912 36.367 51.735 51.232-5.915 13.068-13.343 40.306-13.756 55.025zm15.957-57.089c-21.291-15.215-38.703-32.435-51.311-52.137l10.926-68.01c18.662-13.753 42.337-19.436 67.85-19.476l56.037 43.053c-3.627 25.132-10.562 49.679-21.047 73.597-23.114 10.051-44.603 18.409-62.455 22.973z" fill="#4f4f4f"/><path d="m300.404 246.903-5.01-.303c-3.536 2.406-6.629 4.381-9.498 6.101a190.3 190.3 0 0 0-3.605-7.39c-28.943-6.237-58.4-7.962-88.248-6.246-5.875 13.26-13.114 39.967-13.521 54.493-15.845 7.153-37.618 10.555-62.316 12.106-7.604-9.969-31.119-29.82-56.401-49.798-.222-22.141 2.307-42.043 11.857-56.233 22.086-.391 45.189-5.107 68.881-12.332 6.702 9.805 14.481 18.944 23.206 27.498l2.792-1.756c-8.993-8.949-16.834-18.493-23.373-28.71l7.456-46.414c-28.235-12.756-56.855-22.786-85.868-30.033-7.945 7.687-15.226 15.551-21.735 23.622-13.355-1.387-28.606-1.508-41.501.736-.294 1.389-.707 3.729-.966 5.131 11.603-3.89 27.232-4.308 41.504-1.877 8.3 23.16 14.756 43.147 26.702 62.812-9.158 14.202-12.299 32.852-12.222 55.797-20.165-4.247-30.379-5.251-37.584-6.428 18.315 34.297 51.528 62.089 88.168 75.466 3.568-3.899 7.287-9.882 9.191-14.354 24.098-1.458 46.111-4.815 63.996-11.93 14.862 5.461 30.46 8.901 47.047 9.629l-9.554 18.176c1.534-.54 3.909-1.349 5.421-1.933l7.984-15.28c21.132-12.093 41.333-34.452 53.38-50.125 4.978-3.835 9.709-6.987 13.817-10.425zM107.336 37.877l.068-8.618s-19.891 1.484-35.792 2.942c-1.916.77-6.554 2.346-8.364 3.745 14.161-2.436 30.165-3.23 42.027-2.66-7.085 16.611-11.64 32.944-9.707 48.563l3.763-1.773c-2.384-8.668.87-27.928 8.005-42.199z"/></svg></g><g transform="translate(1143.0 775.0) rotate(0.0 149.5 210.0) scale(0.9988241267805127 1.0014521055530519)"><svg width="299.352" height="419.391" viewBox="0 0 299.352 419.391"><path d="M.093 281.139c3.829-11.231 54.498-103.887 98.778-135.11 8.603-6.066 14.213-5.933 19.301-9.083S229.667 15.433 262.933 1.799c19.301-7.911 33.334 11.992 26.681 26.151-13.744 29.25-89.127 114.106-89.127 114.106 24.546-11.211 56.265 10.611 38.603 46.55 22.252-5.788 55.403 23.468 27.249 56.201 0 0 34.968-4.428 32.926 34.629-1.453 27.789-58.938 81.33-74.663 80.806-8.557-.285-12.193-3.6-12.193-3.6s-67.181 67.825-84.018 62.446C111.554 413.708-3.736 292.37.093 281.139z" fill="#ff4e56"/><path d="M118.173 136.946s3.937 9.839 63.029 10.928c6.562.121 19.286-5.819 19.286-5.819l-11.131 7.672s30.645 8.934 29.282 34.471c-7.03 36.733-89.329 37.066-89.329 37.066-21.426 4.003-.611 61.429 23.722 39.661 67.681-60.546 86.059-72.32 86.059-72.32l4.383-.687s-96.479 71.719-85.339 102.06c3.07 8.361 17.412 24.124 32 16.592 25.267-13.046 76.205-61.764 76.205-61.764l7.901.149s-80.829 59.98-75.099 84.608c5.478 23.547 30.669 29.555 30.669 29.555-4.103 2.101-13.223.905-17.808-2.068-12.365-8.017-26.099-23.325-20.558-43.037-22.88 6.068-42.2-14.387-38.919-35.954-7.237 25.129-26.133 38.233-51.757 44.395 24.33-11.986 38.5-29.577 44.109-51.893-22.534 4.957-40.549-28.939-27.429-49.669 0 0-40.323-7.086-40.402-8.525-.376-6.872 122.256 7.027 131.577-25.5 2.745-9.578-1.174-15.228-3.081-18.015-16.069-23.473-108.446-21.539-108.446-21.539 3.762-3.857 11.543-7.22 21.076-10.367z" fill="#d9383f"/></svg></g></svg>