<svg xmlns="http://www.w3.org/2000/svg"  viewBox="0 0 256 256" width="64px" height="64px"><g id="Layer_57"><path fill="#f5c84c" d="M193.363,25.731c-4.498-0.838-8.043-4.31-8.898-8.717c-0.043-0.221-0.352-0.221-0.395,0 c-0.855,4.406-4.4,7.879-8.898,8.717c-0.226,0.042-0.226,0.345,0,0.387c4.498,0.838,8.043,4.31,8.898,8.717 c0.043,0.221,0.352,0.221,0.395,0c0.855-4.406,4.4-7.879,8.898-8.717C193.589,26.075,193.589,25.773,193.363,25.731z"/><path fill="#70d6f9" d="M76.599,164.487h-2.33v-2.33c0-1.744-1.413-3.157-3.157-3.157s-3.157,1.413-3.157,3.157v2.33h-2.329 c-1.744,0-3.157,1.413-3.157,3.157s1.413,3.157,3.157,3.157h2.329v2.33c0,1.744,1.413,3.157,3.157,3.157 s3.157-1.413,3.157-3.157v-2.33h2.33c1.744,0,3.157-1.413,3.157-3.157S78.343,164.487,76.599,164.487z"/><path fill="#87d147" d="M162.32,0c-1.865,0-3.377,1.512-3.377,3.377s1.512,3.377,3.377,3.377c1.865,0,3.377-1.512,3.377-3.377 S164.185,0,162.32,0z"/><path fill="#fc657e" d="M181.626,140.52c-3.144-0.585-5.623-3.013-6.221-6.094c-0.03-0.155-0.246-0.155-0.276,0 c-0.598,3.08-3.076,5.508-6.221,6.094c-0.158,0.03-0.158,0.241,0,0.271c3.145,0.585,5.623,3.013,6.221,6.094 c0.03,0.155,0.246,0.155,0.276,0c0.598-3.081,3.076-5.509,6.221-6.094C181.784,140.76,181.784,140.549,181.626,140.52z"/><path fill="#fc657e" d="M67.32,97.25c-1.865,0-3.377,1.512-3.377,3.377s1.512,3.377,3.377,3.377c1.865,0,3.377-1.512,3.377-3.377 S69.185,97.25,67.32,97.25z"/><path fill="#f5c84c" d="M80.32,189.25c-1.865,0-3.377,1.512-3.377,3.377s1.512,3.377,3.377,3.377c1.865,0,3.377-1.512,3.377-3.377 S82.185,189.25,80.32,189.25z"/><path fill="#fcdd86" d="M170.978,67.162c-0.018-1.873-1.993-3.102-3.664-2.255c-5.64,2.861-17.986,6.132-36.426-4.87 c-1.19-0.71-2.621-0.906-3.966-0.57c3.094,13.12,15.927,78.798-22.59,131.647l-7.5,9.5 C167.291,164.081,171.164,86.688,170.978,67.162z"/><path fill="#f5c84c" d="M126.922,59.468l-0.36,0.09c-1.223,0.306-2.306,1.035-3.028,2.068 c-11.35,16.217-27.424,15.583-38.19,12.641c-3.493-0.955-6.368,2.816-4.495,5.915c12.714,21.036,36.432,70.448,15.983,120.434 l7.5-9.5C142.85,138.265,130.017,72.588,126.922,59.468z"/><path fill="#f5c84c" d="M123.332,8.115c-25.957,0-47,21.042-47,47c0,7.388,1.709,14.375,4.747,20.596 c0.92-1.215,2.515-1.923,4.265-1.445c10.766,2.942,26.84,3.576,38.19-12.641c0.723-1.033,1.805-1.762,3.028-2.068l0.36-0.09 c1.345-0.336,2.776-0.14,3.966,0.57c18.441,11.002,30.786,7.73,36.426,4.87c0.672-0.341,1.388-0.334,2.011-0.097 c0.656-3.129,1.007-6.371,1.007-9.696C170.332,29.157,149.289,8.115,123.332,8.115z"/><path fill="#edb311" d="M85.131,87.673c0.079,10.315,1.529,47.947,17.206,95.195C110.672,144.453,96.324,108.381,85.131,87.673z"/><path fill="#edb311" d="M167.314,64.907c-4.822,2.446-14.55,5.183-28.793-0.947c1.806,11.447,6.544,36.496,13.469,36.943 c8.09,0.523,15.751-30.073,17.193-36.153C168.594,64.567,167.934,64.593,167.314,64.907z"/><path fill="#f5c84c" d="M145.832,200.615c-4.619-11.292-6.968-22.55-7.716-33.462c-10.262,12.676-23.697,24.343-41.284,33.462 c-1.434,3.506-2.794,6.824-4.096,10h57.191C148.626,207.439,147.266,204.121,145.832,200.615z"/><path fill="#57af12" d="M165.571,248.523c-1.054-2.529-2.217-5.329-3.493-8.408H80.586c0.003-0.007,0.006-0.014,0.009-0.021 c-1.279,3.086-2.445,5.892-3.501,8.427c-0.988,2.372,0.758,4.977,3.327,4.977l81.824,0.002 C164.814,253.5,166.56,250.895,165.571,248.523z"/><path fill="#57af12" d="M149.928,210.615H92.737c-1.996,4.869-3.841,9.36-5.545,13.5h68.282 C153.769,219.975,151.924,215.484,149.928,210.615z"/><path fill="#f5c84c" d="M161.394,238.463c-0.029-0.071-0.058-0.141-0.088-0.211c-1.733-4.186-3.669-8.877-5.831-14.13 c-0.001-0.002-0.002-0.004-0.003-0.006H87.191c-1.737,4.221-3.329,8.08-4.787,11.604c-0.128,0.309-0.256,0.62-0.382,0.924 c-0.179,0.432-0.353,0.854-0.528,1.275c-0.117,0.283-0.233,0.563-0.348,0.842c-0.186,0.449-0.371,0.896-0.553,1.334 c-0.003,0.007-0.006,0.014-0.009,0.021h81.493C161.855,239.575,161.625,239.021,161.394,238.463z"/><path fill="#fcdd86" d="M123.332,8.115c-4.269,0-8.4,0.58-12.331,1.646c-0.287,1.646-0.107,3.371,0.622,4.879 c1.57,3.248,5.331,5.655,5.195,9.26c-0.076,2.004-1.392,3.709-2.273,5.51s-1.217,4.266,0.305,5.572 c0.586,0.503,1.357,0.737,2.12,0.863c4.085,0.672,8.564-1.378,12.274,0.46c3.274,1.622,4.595,5.65,7.481,7.89 c1.828,1.419,4.148,2.016,6.19,3.106c2.042,1.089,3.961,3.036,3.801,5.344c-0.073,1.058-0.583,2.074-0.495,3.131 c0.122,1.46,1.35,2.589,2.638,3.288c3.869,2.096,8.699,1.633,12.659,3.552c1.558,0.755,2.883,1.831,4.056,3.085 c0.637-0.26,1.218-0.529,1.741-0.794c0.672-0.341,1.388-0.334,2.011-0.097c0.656-3.129,1.007-6.371,1.007-9.696 C170.332,29.157,149.289,8.115,123.332,8.115z"/><path fill="#fcdd86" d="M98.92,58.591c-0.91-1.239-1.968-2.43-2.399-3.905c-0.671-2.295,0.293-4.903-0.676-7.089 c-0.839-1.892-2.868-2.906-4.735-3.8c-3.681-1.76-7.441-3.725-9.921-6.965c-0.252-0.33-0.482-0.68-0.699-1.04 c-2.664,5.896-4.158,12.433-4.158,19.323c0,7.388,1.709,14.375,4.747,20.596c0.92-1.215,2.515-1.923,4.265-1.445 c5.048,1.379,11.262,2.251,17.61,1.117C103.743,69.526,102.426,63.363,98.92,58.591z"/><path d="M140.699,167.982c9.156-11.485,16.528-24.701,22.042-39.604c9.961-26.917,10.827-51.794,10.737-61.239 c-0.012-1.314-0.523-2.536-1.407-3.452c0.495-2.827,0.76-5.701,0.76-8.571c0-27.294-22.206-49.5-49.5-49.5 c-35.889,0-59.971,37.291-45.043,69.994c-0.795,1.882-0.677,4.049,0.42,5.864c1.191,1.97,2.523,4.272,3.929,6.864 c0.134,11.258,1.845,48.329,17.101,94.626c-2.107,9.509-2.991,11.641-21.454,56.171v0c-0.554,1.335-1.521,3.676-3.499,8.424 c-1.672,4.014,1.282,8.439,5.635,8.439L162.244,256c4.354,0,7.307-4.427,5.635-8.438 C152.01,209.45,142.523,191.429,140.699,167.982z M158.053,126.643c-10.614,28.682-28.204,50.349-51.203,65.257 c26.121-36.299,32.225-85.58,23.299-129.396c1.848,1.083,4.07,2.251,6.123,3.194c6.02,37.058,13.183,37.547,15.556,37.7 c0.116,0.007,0.231,0.011,0.347,0.011c6.502,0,11.927-11.825,15.975-25.138C167.383,90.179,164.989,107.899,158.053,126.643z M141.7,67.864c7.816,2.635,16.264,3.358,24.022,0.466c-4.932,19.148-10.59,30.261-13.572,30.078 C152.096,98.405,146.788,97.214,141.7,67.864z M123.332,10.615c24.537,0,44.5,19.963,44.5,44.5 c0,2.396-0.194,4.798-0.578,7.164c-0.1,0.024-0.661,0.19-1.159,0.441c-1.107-0.982-2.259-1.759-3.488-2.354 c-2.221-1.076-4.538-1.484-6.779-1.879c-2.124-0.375-4.131-0.729-5.778-1.621c-0.846-0.458-1.313-0.999-1.338-1.3 c-0.029-0.349,0.424-1.693,0.498-2.749c0.205-2.971-1.757-5.93-5.118-7.722c-1.961-1.048-4.378-1.747-5.834-2.875 c-2.483-1.927-3.945-6.193-7.904-8.156c-1.635-0.81-3.324-1.045-4.97-1.045c-1.202,0-2.38,0.126-3.495,0.244 c-0.924,0.098-4.599,0.519-5.411-0.179c-0.272-0.233-0.285-1.353,0.313-2.577c0.862-1.764,2.423-3.804,2.524-6.514 c0.122-3.206-1.754-5.518-3.409-7.557c-0.811-0.999-1.576-1.941-2.032-2.886c-0.264-0.546-0.425-1.16-0.48-1.804 C116.58,11.018,119.896,10.615,123.332,10.615z M108.549,13.15c0.162,0.902,0.433,1.772,0.822,2.578 c0.709,1.468,1.697,2.685,2.652,3.861c1.258,1.55,2.345,2.89,2.295,4.217c-0.047,1.261-1.181,2.789-2.021,4.507 c-1.627,3.328-1.265,6.691,0.924,8.568c2.347,2.01,6.151,1.681,9.195,1.354c2.249-0.239,4.191-0.445,5.715,0.31 c2.503,1.24,3.868,5.148,7.06,7.626c2.159,1.674,4.619,2.306,6.545,3.336c1.249,0.666,2.56,1.878,2.484,2.964 c-0.048,0.715-0.622,1.971-0.492,3.512c0.176,2.124,1.574,3.999,3.938,5.28c2.362,1.279,4.868,1.722,7.292,2.148 c1.837,0.323,3.568,0.646,5.079,1.298c-9.581,1.79-19.532-1.845-27.869-6.818c-3.626-2.165-8.463-0.876-10.683,2.301 c-3.969,5.67-9.134,9.945-15.815,11.957c0.012-5.732-1.685-11.033-5.261-15.735c-0.651-0.854-1.267-1.662-1.49-2.428 c0-0.001,0-0.001,0-0.001c-0.195-0.669-0.167-1.559-0.137-2.501c0.162-5.078-1.096-7.31-6.596-9.942 c-3.29-1.573-6.662-3.338-8.811-5.992C88.486,25.159,97.528,17.044,108.549,13.15z M82.141,71.977 c-3.957-9.623-4.518-20.819-0.868-31.368c2.567,2.366,5.705,3.984,8.757,5.443c3.836,1.837,3.848,2.383,3.756,5.271 c-0.117,3.599,0.26,4.989,2.646,8.12c3.124,4.102,4.464,8.758,4.215,13.738c-8.061,0.956-14.451-1.368-15.577-1.508 C83.727,71.5,83.041,71.772,82.141,71.977z M87.26,86.377c-1.531-2.839-2.982-5.356-4.272-7.49 c-0.694-1.15,0.359-2.571,1.696-2.211c17.7,4.841,31.682-0.818,40.568-13.154c8.489,41.271,3.2,88.986-21.473,124.061 c8.86-34.438,0.397-69.935-16.449-101.1C87.31,86.446,87.282,86.414,87.26,86.377z M88.086,99.242 c8.404,18.352,16.691,44.644,13.474,72.849C92.173,140.718,89.081,114.512,88.086,99.242z M98.8,202.408 c13.87-7.305,26.679-17.051,37.392-29.094c1.193,9.781,3.649,19.259,7.326,28.248c0,0,0,0,0,0.001l2.684,6.553h-49.74 L98.8,202.408z M94.413,213.115h53.838c1.221,2.976,2.383,5.807,3.49,8.5H90.923C92.03,218.922,93.193,216.091,94.413,213.115z M88.865,226.615h64.934c1.646,3.995,3.155,7.653,4.539,11H84.325C84.389,237.46,86.205,233.078,88.865,226.615z M162.244,251 l-81.823-0.002c-0.786,0-1.323-0.786-1.02-1.517c0.875-2.101,1.826-4.388,2.854-6.866h78.154 c1.028,2.479,1.979,4.768,2.854,6.869C163.564,250.207,163.036,251,162.244,251z"/></g></svg>